<svg width="16" height="14" viewBox="0 0 16 14" fill="none" xmlns="http://www.w3.org/2000/svg">
<path fill-rule="evenodd" clip-rule="evenodd" d="M5.5 6.5C7.15685 6.5 8.5 5.15685 8.5 3.5C8.5 1.84315 7.15685 0.5 5.5 0.5C3.84315 0.5 2.5 1.84315 2.5 3.5C2.5 5.15685 3.84315 6.5 5.5 6.5Z" stroke="#3BB9E3" stroke-linecap="round" stroke-linejoin="round"/>
<path fill-rule="evenodd" clip-rule="evenodd" d="M12.5 5.5C13.6046 5.5 14.5 4.60457 14.5 3.5C14.5 2.39543 13.6046 1.5 12.5 1.5C11.3954 1.5 10.5 2.39543 10.5 3.5C10.5 4.60457 11.3954 5.5 12.5 5.5Z" stroke="#3BB9E3" stroke-linecap="round" stroke-linejoin="round"/>
<path fill-rule="evenodd" clip-rule="evenodd" d="M5.5 8.5V8.5C2.73858 8.5 0.5 10.7386 0.5 13.5H10.5C10.5 10.7386 8.26142 8.5 5.5 8.5V8.5Z" stroke="#3BB9E3" stroke-linecap="round" stroke-linejoin="round"/>
<path d="M10.8409 8C11.3324 7.67303 11.9097 7.49903 12.4999 7.5V7.5C14.1568 7.5 15.4999 8.84315 15.4999 10.5V11.5H12.4999" stroke="#3BB9E3" stroke-linecap="round" stroke-linejoin="round"/>
</svg>
